<svg version="1.2" xmlns="http://www.w3.org/2000/svg" viewBox="0 0 192 192" width="192" height="192">
	<title>dotychczasowy OE-svg</title>
	<style>
		.s0 { fill: #b51200 } 
	</style>
	<path id="Layer" fill-rule="evenodd" class="s0" d="m109.4 77.9c13.3 37.5-14.3 73.6-52.7 69.2-59.1-6.8-60.2-92.1-1.4-102.2 22.2-3.8 46.3 11 54.1 33zm13.3-32h57.1v21.6h-34.6v18.9h33.9v20.2h-33.9v19.3h34.6v20.9h-57.1zm-65.2 22c-12.5 2.9-19.8 13.3-19.9 28.2-0.2 37.6 46.9 39.4 49.4 1.9 1.3-18-14.1-33.7-29.5-30.1z"/>
	<path id="Layer" fill-rule="evenodd" class="s0" d="m109.4 77.9c13.3 37.5-14.3 73.6-52.7 69.2-59.1-6.8-60.2-92.1-1.4-102.2 22.2-3.8 46.3 11 54.1 33zm13.3-32h57.1v21.6h-34.6v18.9h33.9v20.2h-33.9v19.3h34.6v20.9h-57.1zm-65.2 22c-12.5 2.9-19.8 13.3-19.9 28.2-0.2 37.6 46.9 39.4 49.4 1.9 1.3-18-14.1-33.7-29.5-30.1z"/>
</svg>